<svg width="628" height="84" viewBox="0 0 628 84" fill="none" xmlns="http://www.w3.org/2000/svg">
<path d="M0.216001 84V0.799995H24.792C33.24 0.799995 40.664 2.208 47.064 5.02399C53.5493 7.75466 58.584 12.1493 62.168 18.208C65.752 24.2667 67.544 32.2027 67.544 42.016C67.544 51.8293 65.752 59.8507 62.168 66.08C58.584 72.224 53.6773 76.7467 47.448 79.648C41.2187 82.5493 34.0933 84 26.072 84H0.216001ZM22.232 66.336H23.512C27.5227 66.336 31.1493 65.6533 34.392 64.288C37.6347 62.9227 40.1947 60.4907 42.072 56.992C44.0347 53.4933 45.016 48.5013 45.016 42.016C45.016 35.5307 44.0347 30.624 42.072 27.296C40.1947 23.8827 37.6347 21.5787 34.392 20.384C31.1493 19.104 27.5227 18.464 23.512 18.464H22.232V66.336ZM100.261 84V0.799995H122.277V84H100.261ZM174.553 84V19.232H152.537V0.799995H218.585V19.232H196.569V84H174.553ZM238.606 84V70.688L272.654 19.232H241.934V0.799995H299.79V14.112L265.742 65.568H300.046V84H238.606ZM331.021 84V0.799995H360.973C366.776 0.799995 372.066 1.39733 376.845 2.592C381.624 3.78666 385.421 5.87733 388.237 8.864C391.053 11.8507 392.461 16.0747 392.461 21.536C392.461 25.12 391.522 28.704 389.645 32.288C387.768 35.7867 385.208 38.176 381.965 39.456V39.968C385.976 41.0773 389.346 43.2107 392.077 46.368C394.893 49.5253 396.301 53.8773 396.301 59.424C396.301 65.1413 394.808 69.8347 391.821 73.504C388.834 77.088 384.866 79.7333 379.917 81.44C374.968 83.1467 369.506 84 363.533 84H331.021ZM353.037 33.312H360.461C364.045 33.312 366.69 32.544 368.397 31.008C370.104 29.472 370.957 27.424 370.957 24.864C370.957 22.304 370.104 20.4693 368.397 19.36C366.69 18.2507 364.045 17.696 360.461 17.696H353.037V33.312ZM353.037 67.104H361.997C370.53 67.104 374.797 64.032 374.797 57.888C374.797 54.816 373.73 52.64 371.597 51.36C369.549 50.08 366.349 49.44 361.997 49.44H353.037V67.104ZM427.316 84V0.799995H449.332V84H427.316ZM501.608 84V19.232H479.592V0.799995H545.64V19.232H523.624V84H501.608ZM565.661 84V70.688L599.709 19.232H568.989V0.799995H626.845V14.112L592.797 65.568H627.101V84H565.661Z" fill="black"/>
</svg>
